<?xml version="1.0" encoding="UTF-8" ?>
<!DOCTYPE svg PUBLIC "-//W3C//DTD SVG 1.1//EN" "http://www.w3.org/Graphics/SVG/1.1/DTD/svg11.dtd">
<svg width="500pt" height="500pt" viewBox="0 0 500 500" version="1.1" xmlns="http://www.w3.org/2000/svg">
<path fill="#d0152d" d=" M 0.00 0.00 L 500.00 0.00 L 500.00 500.00 L 0.00 500.00 L 0.00 0.00 Z" />
<path fill="#fdfafa" d=" M 91.96 199.83 C 96.47 203.71 100.52 208.07 104.72 212.28 C 116.40 223.94 128.15 235.52 139.65 247.36 C 141.00 248.68 142.40 249.98 144.04 250.95 C 148.17 248.60 151.00 244.62 154.42 241.42 C 168.50 227.49 182.23 213.20 196.58 199.56 C 182.10 234.72 167.44 269.81 152.97 304.97 C 150.07 311.74 147.52 318.67 144.34 325.33 C 142.20 321.73 140.54 317.89 139.03 313.99 C 123.49 275.88 107.37 238.00 91.96 199.83 Z" />
<path fill="#fdfafa" d=" M 16.95 274.82 C 48.05 287.20 78.83 300.41 109.80 313.12 C 120.66 317.72 131.74 321.82 142.44 326.79 C 136.39 330.37 129.62 332.41 123.26 335.33 C 87.71 350.09 52.07 364.63 16.60 379.57 C 33.43 361.59 51.61 344.89 68.50 326.97 C 51.70 309.22 33.70 292.62 16.95 274.82 Z" />
<path fill="#fdfafa" d=" M 244.21 285.93 C 253.20 282.27 262.05 278.22 271.17 274.88 C 266.90 280.02 261.93 284.51 257.26 289.27 C 247.46 299.14 237.58 308.92 227.74 318.74 C 225.14 321.43 221.99 323.71 220.13 327.01 C 220.67 328.02 221.35 328.96 222.14 329.80 C 238.87 346.36 255.62 362.91 272.10 379.72 C 236.42 364.70 200.54 350.16 164.84 335.20 C 158.44 332.38 151.66 330.34 145.64 326.72 C 178.49 313.12 211.31 299.43 244.21 285.93 Z" />
<path fill="#fdfafa" d=" M 384.41 293.59 C 396.74 292.38 409.92 293.64 420.66 300.31 C 428.05 304.80 433.66 311.65 438.00 319.03 C 429.79 324.63 421.36 329.92 412.93 335.21 C 409.36 330.21 405.58 324.61 399.43 322.65 C 393.20 320.68 385.53 320.88 380.46 325.45 C 374.32 330.93 374.78 341.74 381.10 346.90 C 387.01 351.89 394.47 354.41 401.44 357.53 C 413.71 362.84 426.40 368.40 435.89 378.10 C 443.66 385.97 447.40 397.08 447.49 408.00 C 448.02 419.61 444.38 431.72 436.05 440.05 C 425.17 451.06 409.12 455.33 393.99 455.06 C 380.42 455.40 366.56 452.28 355.05 444.92 C 346.25 439.38 339.11 431.36 334.41 422.10 C 343.10 416.88 351.84 411.75 360.73 406.89 C 365.88 414.44 372.20 422.00 381.32 424.71 C 390.91 427.60 402.71 427.51 410.61 420.60 C 417.69 414.31 415.85 401.84 407.87 397.11 C 394.68 388.55 378.87 385.01 365.80 376.19 C 356.87 370.44 349.32 362.02 346.29 351.68 C 342.49 338.66 343.38 323.64 351.26 312.25 C 358.64 301.26 371.47 294.95 384.41 293.59 Z" />
<path fill="#fdfafa" d=" M 284.16 295.07 C 294.98 294.90 305.81 294.82 316.63 295.12 C 316.57 328.42 316.61 361.71 316.60 395.00 C 316.57 404.77 317.10 414.75 314.29 424.23 C 311.83 433.18 306.57 441.53 298.83 446.81 C 289.60 453.23 278.07 455.39 266.99 455.06 C 253.51 455.30 239.67 450.59 230.05 440.95 C 225.47 436.54 221.97 431.16 219.25 425.45 C 228.11 420.31 236.65 414.63 245.66 409.76 C 249.61 416.01 253.62 423.55 261.35 425.55 C 267.12 426.77 273.96 426.66 278.69 422.70 C 283.35 418.57 284.01 411.88 284.13 406.04 C 284.17 369.05 284.11 332.06 284.16 295.07 Z" />
<path fill="#fdfafa" d=" M 144.15 328.48 C 145.43 331.06 146.65 333.67 147.75 336.33 C 164.01 375.95 180.55 415.45 196.83 455.06 C 179.45 437.55 161.90 420.21 144.56 402.66 C 141.56 404.93 138.78 407.47 136.21 410.21 C 121.56 425.25 106.42 439.80 91.77 454.83 C 99.26 435.26 107.75 416.08 115.64 396.66 C 124.04 376.39 132.41 356.10 140.76 335.81 C 141.81 333.33 142.96 330.90 144.15 328.48 Z" />
</svg>
